<svg width="18" height="20" viewBox="0 0 18 20" fill="none" xmlns="http://www.w3.org/2000/svg">
<path fill-rule="evenodd" clip-rule="evenodd" d="M5.72721 0.727205C6.06477 0.389639 6.52261 0.199997 7 0.199997H11C11.4774 0.199997 11.9352 0.389639 12.2728 0.727205C12.6104 1.06477 12.8 1.52261 12.8 2V4.2H15.9917C15.9967 4.19995 16.0016 4.19995 16.0066 4.2H17C17.4418 4.2 17.8 4.55817 17.8 5C17.8 5.44182 17.4418 5.8 17 5.8H16.7449L15.931 17.1988C15.8807 17.9052 15.5646 18.5663 15.0463 19.049C14.5281 19.5317 13.8462 19.8 13.138 19.8H4.86202C4.15381 19.8 3.47191 19.5317 2.95366 19.049C2.43544 18.5664 2.11935 17.9053 2.06903 17.199C2.06902 17.1989 2.06903 17.199 2.06903 17.199L1.25508 5.8H0.999997C0.558169 5.8 0.199997 5.44182 0.199997 5C0.199997 4.55817 0.558169 4.2 0.999997 4.2H1.99338C1.99835 4.19995 2.00331 4.19995 2.00827 4.2H5.2V2C5.2 1.52261 5.38964 1.06477 5.72721 0.727205ZM2.85916 5.8L3.66497 17.085C3.68652 17.3878 3.822 17.6713 4.04411 17.8781C4.26622 18.085 4.55846 18.2 4.862 18.2H13.138C13.4415 18.2 13.7338 18.085 13.9559 17.8781C14.178 17.6713 14.3135 17.3879 14.335 17.0852L15.1408 5.8H2.85916ZM11.2 4.2H6.8V2C6.8 1.94695 6.82107 1.89608 6.85858 1.85858C6.89608 1.82107 6.94695 1.8 7 1.8H11C11.053 1.8 11.1039 1.82107 11.1414 1.85858C11.1789 1.89608 11.2 1.94695 11.2 2V4.2ZM7 8.2C7.44182 8.2 7.8 8.55817 7.8 9V15C7.8 15.4418 7.44182 15.8 7 15.8C6.55817 15.8 6.2 15.4418 6.2 15V9C6.2 8.55817 6.55817 8.2 7 8.2ZM11 8.2C11.4418 8.2 11.8 8.55817 11.8 9V15C11.8 15.4418 11.4418 15.8 11 15.8C10.5582 15.8 10.2 15.4418 10.2 15V9C10.2 8.55817 10.5582 8.2 11 8.2Z" fill="#14161A"/>
</svg>
