<svg width="24" height="24" viewBox="0 0 24 24" fill="none" xmlns="http://www.w3.org/2000/svg">
<g id="Search">
<path id="Vector (Stroke)" fill-rule="evenodd" clip-rule="evenodd" d="M10 3.8C8.35565 3.8 6.77866 4.45321 5.61593 5.61594C4.45321 6.77866 3.8 8.35566 3.8 10C3.8 10.8142 3.96036 11.6204 4.27194 12.3726C4.58352 13.1249 5.04021 13.8083 5.61593 14.3841C6.19166 14.9598 6.87514 15.4165 7.62736 15.7281C8.37958 16.0396 9.1858 16.2 10 16.2C10.8142 16.2 11.6204 16.0396 12.3726 15.7281C13.1249 15.4165 13.8083 14.9598 14.3841 14.3841C14.9598 13.8083 15.4165 13.1249 15.7281 12.3726C16.0396 11.6204 16.2 10.8142 16.2 10C16.2 8.35566 15.5468 6.77866 14.3841 5.61594C13.2213 4.45321 11.6443 3.8 10 3.8ZM4.48456 4.48457C5.94735 3.02178 7.93131 2.2 10 2.2C12.0687 2.2 14.0526 3.02178 15.5154 4.48457C16.9782 5.94735 17.8 7.93131 17.8 10C17.8 11.0243 17.5982 12.0386 17.2063 12.9849C16.9167 13.684 16.5276 14.3358 16.052 14.9207L21.5657 20.4343C21.8781 20.7467 21.8781 21.2533 21.5657 21.5657C21.2533 21.8781 20.7467 21.8781 20.4343 21.5657L14.9207 16.052C14.3358 16.5276 13.6839 16.9167 12.9849 17.2063C12.0386 17.5982 11.0243 17.8 10 17.8C8.97569 17.8 7.96141 17.5982 7.01507 17.2063C6.06873 16.8143 5.20886 16.2397 4.48456 15.5154C3.76027 14.7911 3.18572 13.9313 2.79374 12.9849C2.40175 12.0386 2.2 11.0243 2.2 10C2.2 7.93131 3.02178 5.94735 4.48456 4.48457Z" fill="#14161A"/>
</g>
</svg>
