<svg width="19" height="19" viewBox="0 0 19 19" fill="none" xmlns="http://www.w3.org/2000/svg">
<path fill-rule="evenodd" clip-rule="evenodd" d="M16.479 1.86478C16.3315 1.80445 16.1735 1.77408 16.0141 1.77547C15.8548 1.77685 15.6973 1.80996 15.5509 1.87285C15.4045 1.93574 15.2721 2.02716 15.1614 2.14177L15.1518 2.15177L6.8 10.5034V12.2H8.49663L16.8581 3.83848C16.9728 3.72778 17.0643 3.59546 17.1271 3.44905C17.19 3.30265 17.2231 3.14518 17.2245 2.98585C17.2259 2.82652 17.1956 2.6685 17.1352 2.52102C17.0749 2.37355 16.9858 2.23957 16.8731 2.12689C16.7604 2.01422 16.6264 1.92512 16.479 1.86478ZM16.0002 0.175528C16.372 0.172298 16.7407 0.243143 17.0848 0.383929C17.4289 0.524716 17.7416 0.732624 18.0045 0.995524C18.2674 1.25842 18.4753 1.57105 18.6161 1.91516C18.7569 2.25927 18.8277 2.62797 18.8245 2.99975C18.8212 3.37154 18.744 3.73895 18.5972 4.08056C18.4515 4.41986 18.2401 4.72696 17.9752 4.98418L9.39368 13.5657C9.24365 13.7157 9.04017 13.8 8.828 13.8H6C5.55817 13.8 5.2 13.4418 5.2 13V10.172C5.2 9.95983 5.28428 9.75634 5.43431 9.60631L14.0158 1.02483C14.273 0.75993 14.5801 0.548502 14.9194 0.402746C15.261 0.256 15.6285 0.178759 16.0002 0.175528ZM1.0201 3.0201C1.5452 2.495 2.25739 2.2 3 2.2H8C8.44182 2.2 8.8 2.55817 8.8 3C8.8 3.44183 8.44182 3.8 8 3.8H3C2.68174 3.8 2.37651 3.92643 2.15147 4.15147C1.92643 4.37651 1.8 4.68174 1.8 5V16C1.8 16.3183 1.92643 16.6235 2.15147 16.8485C2.37651 17.0736 2.68174 17.2 3 17.2H14C14.3183 17.2 14.6235 17.0736 14.8485 16.8485C15.0736 16.6235 15.2 16.3183 15.2 16V11C15.2 10.5582 15.5582 10.2 16 10.2C16.4418 10.2 16.8 10.5582 16.8 11V16C16.8 16.7426 16.505 17.4548 15.9799 17.9799C15.4548 18.505 14.7426 18.8 14 18.8H3C2.25739 18.8 1.5452 18.505 1.0201 17.9799C0.494996 17.4548 0.199997 16.7426 0.199997 16V5C0.199997 4.25739 0.494996 3.5452 1.0201 3.0201Z" fill="#14161A"/>
</svg>
